<svg xmlns="http://www.w3.org/2000/svg" viewBox="0 0 100 100" width="100" height="100">
  <defs>
    <linearGradient id="bg2" x1="0" y1="0" x2="0" y2="1">
      <stop offset="0" stop-color="#eaf4ff"/><stop offset="1" stop-color="#d7ecff"/>
    </linearGradient>
  </defs>
  <rect width="100" height="100" fill="url(#bg2)"/>
  <!-- shoulders / shirt -->
  <path d="M14 100 C16 78 32 70 50 70 C68 70 84 78 86 100 Z" fill="#f1899a"/>
  <path d="M50 70 l-8 12 l8 6 l8 -6 Z" fill="#ffe3ea"/>
  <!-- back hair -->
  <path d="M24 50 C20 70 24 86 28 96 L72 96 C76 86 80 70 76 50 Z" fill="#4a3b30"/>
  <!-- neck -->
  <rect x="44" y="58" width="12" height="14" rx="5" fill="#f6c7a6"/>
  <!-- face -->
  <circle cx="50" cy="44" r="23" fill="#fbd8b6"/>
  <!-- ears -->
  <circle cx="27" cy="45" r="4.5" fill="#f6c7a6"/><circle cx="73" cy="45" r="4.5" fill="#f6c7a6"/>
  <!-- front hair / bob -->
  <path d="M26 46 C24 24 38 16 50 16 C62 16 76 24 74 46 C72 40 70 36 70 36 L66 32 C58 26 42 26 34 32 L30 36 C30 36 28 40 26 46 Z" fill="#4a3b30"/>
  <path d="M50 18 C44 18 40 22 40 22 C46 24 54 24 60 22 C60 22 56 18 50 18 Z" fill="#5e4c3e"/>
  <!-- eyes -->
  <circle cx="42" cy="46" r="2.5" fill="#3a2c22"/><circle cx="58" cy="46" r="2.5" fill="#3a2c22"/>
  <!-- eyebrows -->
  <path d="M36 38 q6 -2 11 0" stroke="#4a3b30" stroke-width="1.7" fill="none" stroke-linecap="round"/>
  <path d="M53 38 q5 -2 11 0" stroke="#4a3b30" stroke-width="1.7" fill="none" stroke-linecap="round"/>
  <!-- blush -->
  <circle cx="37" cy="53" r="4.2" fill="#f58aa0" opacity=".5"/><circle cx="63" cy="53" r="4.2" fill="#f58aa0" opacity=".5"/>
  <!-- smile -->
  <path d="M44 54 q6 6 12 0" stroke="#c76d72" stroke-width="2.2" fill="none" stroke-linecap="round"/>
</svg>
